<svg id="enviar_email" data-name="enviar email" xmlns="http://www.w3.org/2000/svg" width="105.439" height="105.439" viewBox="0 0 105.439 105.439">
  <path id="Caminho_1" data-name="Caminho 1" d="M76.882,39.539a37.067,37.067,0,0,1,19.77,5.72V10.983A10.982,10.982,0,0,0,85.669,0H10.983A10.982,10.982,0,0,0,0,10.983V50.523A10.982,10.982,0,0,0,10.983,61.506H42.892A37.362,37.362,0,0,1,76.882,39.539ZM8.787,10.851,48.326,29.3l39.54-18.452v7.293L50.654,35.5A5.406,5.406,0,0,1,46,35.5L8.787,18.144Z" fill="#fff"/>
  <path id="Caminho_2" data-name="Caminho 2" d="M29.376,44.753A15.376,15.376,0,1,1,44.753,29.376,15.393,15.393,0,0,1,29.376,44.753Zm0-24.163a8.787,8.787,0,1,0,8.787,8.787A8.8,8.8,0,0,0,29.376,20.59Z" transform="translate(47.506 47.506)" fill="#fff"/>
  <path id="Caminho_3" data-name="Caminho 3" d="M39.552,68.1A28.45,28.45,0,0,1,17.383,57.552,28.551,28.551,0,0,1,57.551,17.384,28.445,28.445,0,0,1,68.108,39.548V45.04a9.885,9.885,0,1,1-19.77,0V27.467a3.295,3.295,0,0,1,6.59,0V45.04a3.295,3.295,0,1,0,6.59,0V39.548a21.893,21.893,0,0,0-8.123-17.055,22.152,22.152,0,0,0-18.606-4.415A21.838,21.838,0,0,0,18.082,34.786,22.173,22.173,0,0,0,22.5,53.4a21.9,21.9,0,0,0,17.055,8.119,3.295,3.295,0,1,1,0,6.59Z" transform="translate(37.331 37.334)" fill="#fff"/>
</svg>
