<svg id="parceiro" xmlns="http://www.w3.org/2000/svg" width="229.022" height="229.022" viewBox="0 0 229.022 229.022">
  <path id="Caminho_28" data-name="Caminho 28" d="M73.876,132.717l1.97,1.139v12.505l-8.979,2.244,20.825,12.149-.15,7.3-.32,1.118,12.316-2.742v-2.925a19.647,19.647,0,0,1,5.655-13.761l-13.548-3.386-.015-12.5,1.974-1.141a19.82,19.82,0,0,0,9.883-17.086v-6.9c0-11.111-8.584-20.41-19.136-20.727A19.736,19.736,0,0,0,64,107.741v7.9a19.8,19.8,0,0,0,9.876,17.079Zm0,0" transform="translate(-32.411 -44.562)" fill="#fff"/>
  <path id="Caminho_29" data-name="Caminho 29" d="M130.146,44.06a51.281,51.281,0,0,1,87.094-.233c.158-.158.3-.332.459-.49a27.529,27.529,0,0,1,8.335-5.541l4.479-10.487-12.6-12.6-11.1,7.226-2.125-1.3a58.924,58.924,0,0,0-17.1-7.091l-2.433-.586L182.409,0H165.119l-2.74,12.951-2.429.58a58.981,58.981,0,0,0-17.1,7.093l-2.125,1.3-11.1-7.226L117.008,27.317l4.431,10.562a27.929,27.929,0,0,1,8.707,6.181Zm0,0" transform="translate(-59.255 0)" fill="#fff"/>
  <path id="Caminho_30" data-name="Caminho 30" d="M0,184v72.177l16.948,5.651,14.329-57.315Zm0,0" transform="translate(0 -93.181)" fill="#fff"/>
  <path id="Caminho_31" data-name="Caminho 31" d="M230.764,122.092a27.724,27.724,0,0,1-11.846-22.657v-7.9a27.462,27.462,0,0,1,2.9-12.3,43.405,43.405,0,0,0-77.041.318,29.1,29.1,0,0,1,3.064,12.972v6.9a27.729,27.729,0,0,1-11.85,22.66v1.891l15.8,3.954,15.795-3.954v-1.9a27.724,27.724,0,0,1-11.846-22.657v-7.9a27.646,27.646,0,0,1,28.489-27.629c14.773.447,26.792,13.284,26.792,28.624v6.9a27.729,27.729,0,0,1-11.85,22.66v1.891l15.8,3.954,15.795-3.954Zm0,0" transform="translate(-68.869 -28.359)" fill="#fff"/>
  <path id="Caminho_32" data-name="Caminho 32" d="M72.477,239.205l-9.006-5.252L49.551,289.63l7.772,2.589h.332l14.823-51.886Zm0,0" transform="translate(-25.093 -118.478)" fill="#fff"/>
  <path id="Caminho_33" data-name="Caminho 33" d="M160.971,152.012a11.837,11.837,0,0,0-8.971,11.5v1.168l2.264-.5a48.763,48.763,0,0,1,25.3,1.153l17.875,5.713a24.632,24.632,0,0,1,5.857.839l24.28,6.937H230l.976-.513v-14.8a11.837,11.837,0,0,0-8.971-11.5l-22.614-5.651-.015-12.5,1.974-1.141a19.82,19.82,0,0,0,9.883-17.086v-6.9c0-11.111-8.584-20.41-19.136-20.727a19.736,19.736,0,0,0-20.351,19.732v7.9a19.8,19.8,0,0,0,9.876,17.079l1.97,1.139v12.505Zm0,0" transform="translate(-76.976 -44.561)" fill="#fff"/>
  <path id="Caminho_34" data-name="Caminho 34" d="M318.249,107.74v7.9a19.8,19.8,0,0,0,9.875,17.079l1.971,1.139v12.505l-13.552,3.386a19.657,19.657,0,0,1,5.655,13.761v10.637l43.424-22.855-19.728-4.928-.015-12.5,1.974-1.141a19.82,19.82,0,0,0,9.883-17.086v-6.9c0-11.111-8.584-20.41-19.136-20.727a19.736,19.736,0,0,0-20.351,19.732Zm0,0" transform="translate(-160.303 -44.561)" fill="#fff"/>
  <path id="Caminho_35" data-name="Caminho 35" d="M165.972,285.7a8.145,8.145,0,0,0-9.469-.912L141.8,293.6a13.224,13.224,0,0,1-20.027-11.345v-.781a13.156,13.156,0,0,1,7.313-11.831l19.72-9.86-5.817-1.861a40.682,40.682,0,0,0-21.186-.958l-26.657,5.927L84.512,300.11l12.131,7.278a11.942,11.942,0,0,1,1.1-1.352l6.941-6.941a12.292,12.292,0,0,1,20.987,8.281,12.293,12.293,0,0,1,11.846,11.846,12.293,12.293,0,0,1,11.846,11.846,12.283,12.283,0,0,1,10.6,6.9l8.813,7.346a6.5,6.5,0,0,0,4.151,1.5,4.119,4.119,0,0,0,2.638-7.282l-20.794-17.326,5.059-6.07,21.448,17.871a4.1,4.1,0,0,0,2.634.96h.862a4.119,4.119,0,0,0,2.638-7.282l-20.794-17.326,5.059-6.07L193.1,322.14a4.244,4.244,0,0,0,2.717.987h.683a4.247,4.247,0,0,0,2.844-7.4Zm0,0" transform="translate(-42.798 -129.643)" fill="#fff"/>
  <path id="Caminho_36" data-name="Caminho 36" d="M244.1,248.013l-6.006-.15-24.814-7.088a17.182,17.182,0,0,0-12.307,1.141L178.95,252.929A5.3,5.3,0,0,0,176,257.7v.781a5.33,5.33,0,0,0,8.063,4.577l14.709-8.821a15.887,15.887,0,0,1,18.82,1.812l33.357,30.026c.237.212.463.43.679.659l66.524-33.261v-44.43Zm0,0" transform="translate(-89.13 -105.861)" fill="#fff"/>
  <path id="Caminho_37" data-name="Caminho 37" d="M232.133,443.191a12.229,12.229,0,0,1-2.487,3.669l-2.965,2.965,2.954,2.6a4.1,4.1,0,0,0,2.72,1.031h.731a4.119,4.119,0,0,0,2.638-7.282Zm0,0" transform="translate(-114.795 -224.44)" fill="#fff"/>
  <path id="Caminho_38" data-name="Caminho 38" d="M203.368,424a4.457,4.457,0,0,0-3.131,1.3l-6.941,6.941a4.428,4.428,0,0,0,6.262,6.262l6.941-6.941A4.428,4.428,0,0,0,203.368,424Zm0,0" transform="translate(-97.232 -214.721)" fill="#fff"/>
  <path id="Caminho_39" data-name="Caminho 39" d="M159.795,380.427a4.428,4.428,0,0,0-7.558-3.131l-6.941,6.941a4.428,4.428,0,0,0,6.262,6.262l6.941-6.941A4.457,4.457,0,0,0,159.795,380.427Zm0,0" transform="translate(-72.924 -190.413)" fill="#fff"/>
  <path id="Caminho_40" data-name="Caminho 40" d="M183.795,404.427a4.428,4.428,0,0,0-7.558-3.131l-6.941,6.941a4.428,4.428,0,0,0,6.262,6.262l6.941-6.941A4.457,4.457,0,0,0,183.795,404.427Zm0,0" transform="translate(-85.078 -202.567)" fill="#fff"/>
  <path id="Caminho_41" data-name="Caminho 41" d="M135.795,356.427a4.428,4.428,0,0,0-7.558-3.131l-6.941,6.941a4.428,4.428,0,0,0,6.262,6.262l6.941-6.941A4.457,4.457,0,0,0,135.795,356.427Zm0,0" transform="translate(-60.77 -178.259)" fill="#fff"/>
</svg>
