<svg id="projetos" xmlns="http://www.w3.org/2000/svg" width="229.022" height="229.022" viewBox="0 0 229.022 229.022">
  <path id="Caminho_42" data-name="Caminho 42" d="M229.844,0H64V23.692H229.844ZM79.795,15.795H71.9V7.9h7.9Zm15.795,0h-7.9V7.9h7.9Zm15.795,0h-7.9V7.9h7.9Zm0,0" transform="translate(-32.411)" fill="#fff"/>
  <path id="Caminho_43" data-name="Caminho 43" d="M231.692,251.846A11.846,11.846,0,1,1,219.846,240,11.847,11.847,0,0,1,231.692,251.846Zm0,0" transform="translate(-105.335 -121.54)" fill="#fff"/>
  <path id="Caminho_44" data-name="Caminho 44" d="M103.487,151.979l9.7-3.23-4.573-9.141,15.2-15.2,9.141,4.573,3.229-9.7h21.486l3.229,9.7,9.141-4.573,15.2,15.2-4.573,9.141,9.7,3.229v6.8h39.487V64.008H64v94.768h39.487ZM71.9,71.9h78.973v7.9H71.9Zm0,15.795h78.973v7.9H71.9Zm0,15.795h78.973v7.9H71.9Zm0,0" transform="translate(-32.411 -32.415)" fill="#fff"/>
  <path id="Caminho_45" data-name="Caminho 45" d="M214.665,432H127.795v7.9H112v7.9H230.46v-7.9H214.665Zm0,0" transform="translate(-56.719 -218.772)" fill="#fff"/>
  <path id="Caminho_46" data-name="Caminho 46" d="M217.176,128H205.33v71.076H157.946v6.8l-9.7,3.229,4.573,9.141-15.2,15.2-9.141-4.573-3.229,9.7H103.77l-3.23-9.7L91.4,233.438l-15.2-15.2,4.573-9.141-9.7-3.229v-6.8H23.692V128H11.846A11.861,11.861,0,0,0,0,139.846V246.46H229.022V139.846A11.861,11.861,0,0,0,217.176,128Zm0,0" transform="translate(0 -64.821)" fill="#fff"/>
  <path id="Caminho_47" data-name="Caminho 47" d="M0,387.949a11.861,11.861,0,0,0,11.846,11.846h205.33a11.861,11.861,0,0,0,11.846-11.846V384H0Zm0,0" transform="translate(0 -194.464)" fill="#fff"/>
  <path id="Caminho_48" data-name="Caminho 48" d="M221.347,237.361l.663-1.749,9.066-3.021v-10.1l-9.066-3.021-.663-1.749c-.195-.511-.4-1-.609-1.494l-.765-1.708,4.269-8.537-7.143-7.143L208.56,203.1l-1.708-.765c-.49-.218-.983-.415-1.494-.609l-1.749-.663L200.587,192h-10.1l-3.021,9.066-1.749.663c-.511.195-1,.4-1.494.609l-1.708.765-8.537-4.269-7.143,7.143,4.269,8.537-.765,1.708c-.218.49-.415.983-.609,1.494l-.663,1.749L160,222.488v10.1l9.066,3.021.663,1.749c.195.511.4,1,.609,1.494l.765,1.708-4.269,8.537,7.143,7.143,8.537-4.269,1.708.765c.49.218.983.415,1.494.609l1.749.663,3.021,9.066h10.1l3.021-9.066,1.749-.663c.511-.195,1-.4,1.494-.609l1.708-.765,8.537,4.269,7.143-7.143-4.269-8.537.765-1.708C220.955,238.366,221.152,237.872,221.347,237.361Zm-25.809,9.92a19.743,19.743,0,1,1,19.743-19.743A19.767,19.767,0,0,1,195.538,247.281Zm0,0" transform="translate(-81.027 -97.232)" fill="#fff"/>
</svg>
