<svg height="448pt" viewBox="0 0 448 448" width="448pt" xmlns="http://www.w3.org/2000/svg"><path d="m224 0c-123.710938 0-224 100.289062-224 224s100.289062 224 224 224 224-100.289062 224-224c-.140625-123.652344-100.347656-223.859375-224-224zm89.390625 303.777344c-.054687.070312-.0625.167968-.125.230468-.296875.328126-.632813.609376-.929687.929688-2.28125 2.496094-4.667969 4.894531-7.152344 7.199219-.589844.542969-1.175782 1.085937-1.785156 1.597656-2.542969 2.257813-5.183594 4.386719-7.910157 6.402344-.558593.414062-1.105469.800781-1.671875 1.246093-2.902344 2.085938-5.898437 4.039063-8.992187 5.855469-.425781.25-.800781.523438-1.257813.800781-3.328125 1.90625-6.746094 3.652344-10.253906 5.25-.222656.09375-.433594.214844-.65625.3125-3.71875 1.667969-7.519531 3.136719-11.390625 4.40625l-.136719.054688c-3.941406 1.292969-7.945312 2.378906-12 3.25h-.089844c-3.886718.820312-7.839843 1.457031-11.855468 1.902344-.199219 0-.390625.074218-.589844.097656-8.378906.894531-16.824219.894531-25.203125 0-.199219 0-.390625-.074219-.589844-.097656-4.015625-.441406-7.96875-1.078125-11.855469-1.902344h-.089843c-4.054688-.871094-8.058594-1.957031-12-3.25l-.136719-.054688c-3.871094-1.269531-7.671875-2.738281-11.390625-4.40625-.222656-.097656-.441406-.21875-.664063-.3125-3.503906-1.601562-6.921874-3.351562-10.25-5.25-.421874-.246093-.796874-.519531-1.253906-.800781-3.089844-1.824219-6.085937-3.773437-8.992187-5.855469-.566407-.40625-1.113281-.796874-1.671875-1.246093-2.726563-2.039063-5.367188-4.167969-7.910156-6.402344-.609376-.535156-1.195313-1.078125-1.785157-1.597656-2.484375-2.289063-4.871093-4.6875-7.152343-7.199219-.296876-.320312-.632813-.601562-.929688-.929688-.0625-.0625-.070312-.160156-.125-.230468-40.8125-45.355469-40.8125-114.199219 0-159.554688.054688-.070312.0625-.167968.125-.230468.296875-.328126.632812-.609376.929688-.929688 2.28125-2.496094 4.667968-4.894531 7.152343-7.199219.589844-.542969 1.175781-1.085937 1.785157-1.597656 2.542968-2.257813 5.183593-4.386719 7.910156-6.402344.558594-.414062 1.105468-.839843 1.671875-1.246093 2.902343-2.09375 5.898437-4.042969 8.992187-5.855469.425782-.25.800782-.523438 1.253906-.800781 3.328126-1.910157 6.75-3.660157 10.265626-5.25.214843-.101563.425781-.214844.640624-.3125 3.722657-1.664063 7.527344-3.136719 11.398438-4.414063l.136719-.046875c3.941406-1.292969 7.945312-2.378906 12-3.25h.089843c3.886719-.820312 7.839844-1.457031 11.855469-1.902344.199219 0 .390625-.074218.589844-.097656 8.378906-.894531 16.824219-.894531 25.203125 0 .199219 0 .390625.074219.589844.097656 4.015625.4375 7.96875 1.070313 11.855468 1.902344h.089844c4.054688.871094 8.058594 1.957031 12 3.25l.128906.046875c3.875 1.277344 7.679688 2.75 11.40625 4.414063l.632813.304687c3.519531 1.601563 6.941406 3.351563 10.269531 5.257813.425782.246093.800782.519531 1.257813.800781 3.085937 1.824219 6.085937 3.773437 8.992187 5.855469.566406.40625 1.113282.796874 1.671875 1.246093 2.726563 2.039063 5.367188 4.167969 7.910157 6.402344.609374.535156 1.195312 1.078125 1.785156 1.597656 2.492187 2.289063 4.875 4.6875 7.152344 7.199219.296874.320312.632812.601562.929687.929688.0625.0625.070313.160156.125.230468 40.8125 45.355469 40.8125 114.199219 0 159.554688zm0 0"/><path d="m293.753906 147.089844-.5625-.515625c-2.027344-1.804688-4.109375-3.527344-6.246094-5.167969-.417968-.316406-.839843-.628906-1.265624-.941406-2.160157-1.601563-4.378907-3.117188-6.65625-4.554688l-1.351563-.796875c-2.289063-1.386719-4.625-2.699219-7.007813-3.90625-.496093-.246093-.992187-.472656-1.488281-.710937-2.25-1.097656-4.53125-2.109375-6.847656-3.03125 5.621094 7.980468 10.191406 16.652344 13.601563 25.800781 6.070312-1.65625 12.027343-3.722656 17.824218-6.175781zm0 0"/><path d="m182.527344 275.886719c11.046875-2.089844 22.238281-3.320313 33.472656-3.679688v-40.207031h-39.800781c.410156 14.824219 2.535156 29.550781 6.328125 43.886719zm0 0"/><path d="m265.472656 172.113281c-11.046875 2.089844-22.238281 3.320313-33.472656 3.679688v40.207031h39.800781c-.410156-14.824219-2.535156-29.550781-6.328125-43.886719zm0 0"/><path d="m176.199219 216h39.800781v-40.207031c-11.234375-.359375-22.425781-1.589844-33.472656-3.679688-3.792969 14.335938-5.917969 29.0625-6.328125 43.886719zm0 0"/><path d="m232 326.320312c10.566406-4.242187 20.800781-16.601562 28.320312-35.128906-9.359374-1.664062-18.820312-2.671875-28.320312-3.015625zm0 0"/><path d="m187.679688 156.800781c9.359374 1.664063 18.820312 2.671875 28.320312 3.015625v-38.136718c-10.566406 4.242187-20.800781 16.601562-28.320312 35.121093zm0 0"/><path d="m232 121.679688v38.144531c9.5-.34375 18.960938-1.351563 28.320312-3.015625-7.519531-18.527344-17.753906-30.886719-28.320312-35.128906zm0 0"/><path d="m271.800781 232h-39.800781v40.207031c11.234375.359375 22.425781 1.589844 33.472656 3.679688 3.792969-14.335938 5.917969-29.0625 6.328125-43.886719zm0 0"/><path d="m280.9375 168.511719c4.105469 15.511719 6.40625 31.449219 6.855469 47.488281h39.800781c-1.574219-20.710938-9.347656-40.464844-22.304688-56.695312-7.832031 3.78125-15.980468 6.863281-24.351562 9.207031zm0 0"/><path d="m280.9375 279.488281c8.371094 2.34375 16.519531 5.425781 24.351562 9.207031 12.957032-16.230468 20.730469-35.984374 22.304688-56.695312h-39.800781c-.449219 16.039062-2.75 31.976562-6.855469 47.488281zm0 0"/><path d="m262.328125 320.558594c2.320313-.925782 4.601563-1.9375 6.847656-3.03125.496094-.238282.992188-.464844 1.488281-.710938 2.398438-1.207031 4.726563-2.519531 7.015626-3.914062l1.335937-.796875c2.277344-1.4375 4.5-2.957031 6.664063-4.5625.425781-.3125.847656-.621094 1.265624-.941407 2.132813-1.640624 4.214844-3.363281 6.246094-5.167968l.5625-.511719c-5.796875-2.449219-11.746094-4.503906-17.816406-6.152344-3.414062 9.144531-7.988281 17.8125-13.609375 25.789063zm0 0"/><path d="m160.207031 232h-39.800781c1.574219 20.710938 9.347656 40.464844 22.304688 56.695312 7.832031-3.78125 15.980468-6.863281 24.351562-9.207031-4.105469-15.511719-6.40625-31.449219-6.855469-47.488281zm0 0"/><path d="m216 326.320312v-38.144531c-9.5.34375-18.960938 1.351563-28.320312 3.015625 7.519531 18.527344 17.753906 30.886719 28.320312 35.128906zm0 0"/><path d="m154.246094 300.910156.5625.515625c2.027344 1.804688 4.109375 3.527344 6.246094 5.167969.417968.316406.800781.628906 1.265624.941406 2.171876 1.601563 4.390626 3.121094 6.664063 4.5625l1.335937.796875c2.289063 1.394531 4.632813 2.707031 7.015626 3.914063.496093.246094.992187.472656 1.488281.710937 2.246093 1.097657 4.527343 2.109375 6.847656 3.03125-5.621094-7.980469-10.191406-16.652343-13.601563-25.796875-6.070312 1.648438-12.027343 3.707032-17.824218 6.15625zm0 0"/><path d="m167.0625 168.511719c-8.371094-2.34375-16.519531-5.425781-24.351562-9.207031-12.957032 16.230468-20.730469 35.984374-22.304688 56.695312h39.800781c.449219-16.039062 2.75-31.976562 6.855469-47.488281zm0 0"/><path d="m185.671875 127.441406c-2.320313.925782-4.601563 1.9375-6.847656 3.03125-.496094.238282-.992188.464844-1.488281.710938-2.398438 1.207031-4.71875 2.519531-7.007813 3.90625l-1.351563.796875c-2.273437 1.425781-4.492187 2.941406-6.65625 4.554687-.425781.3125-.847656.621094-1.265624.941406-2.132813 1.644532-4.214844 3.367188-6.246094 5.167969l-.5625.511719c5.796875 2.449219 11.746094 4.503906 17.816406 6.152344 3.414062-9.140625 7.988281-17.800782 13.609375-25.773438zm0 0"/></svg>