<svg id="enviar" xmlns="http://www.w3.org/2000/svg" width="95.99" height="103.752" viewBox="0 0 95.99 103.752">
  <path id="Caminho_4" data-name="Caminho 4" d="M8.75,17.612v11.4A1.842,1.842,0,0,0,12.077,30.1l6.667-9.073Z" transform="translate(29 72.9)" fill="#fff"/>
  <path id="Caminho_5" data-name="Caminho 5" d="M94.73.67A2.58,2.58,0,0,0,91.6.41L1.612,57.033a3.825,3.825,0,0,0-1.6,3.479,3.576,3.576,0,0,0,2.02,3.147l25.017,10.3L80.323,19.074,39.1,78.921,81.023,96.187a2.6,2.6,0,0,0,.968.193,2.641,2.641,0,0,0,1.56-.525A3.735,3.735,0,0,0,84.959,93.3l11-89.151A3.979,3.979,0,0,0,94.73.67Z" transform="translate(0 0)" fill="#fff"/>
</svg>
