<svg id="equipe" xmlns="http://www.w3.org/2000/svg" width="221.125" height="217.176" viewBox="0 0 221.125 217.176">
  <path id="Caminho_6" data-name="Caminho 6" d="M359.589,232.295A15.795,15.795,0,1,1,343.795,216.5,15.8,15.8,0,0,1,359.589,232.295Zm0,0" transform="translate(-166.105 -109.886)" fill="#fff"/>
  <path id="Caminho_7" data-name="Caminho 7" d="M87.589,232.295A15.795,15.795,0,1,1,71.795,216.5,15.8,15.8,0,0,1,87.589,232.295Zm0,0" transform="translate(-28.36 -109.886)" fill="#fff"/>
  <path id="Caminho_8" data-name="Caminho 8" d="M223.589,200.295A15.795,15.795,0,1,1,207.795,184.5,15.8,15.8,0,0,1,223.589,200.295Zm0,0" transform="translate(-97.232 -93.681)" fill="#fff"/>
  <path id="Caminho_9" data-name="Caminho 9" d="M63.289,367.678a19.417,19.417,0,0,1-4.059-11.846V316.346a35.524,35.524,0,0,1,2.046-11.725c-.679-.046-1.352-.121-2.046-.121H27.641a27.32,27.32,0,0,0-15.534,4.793A27.671,27.671,0,0,0,0,332.141v15.795a19.777,19.777,0,0,0,11.5,17.923,18.639,18.639,0,0,0,4.3,1.425v-43.04h7.9v43.435Zm0,0" transform="translate(0 -154.451)" fill="#fff"/>
  <path id="Caminho_10" data-name="Caminho 10" d="M136.121,440.4c-.042-.031-.077-.071-.121-.1v.1Zm0,0" transform="translate(-68.873 -223.219)" fill="#fff"/>
  <path id="Caminho_11" data-name="Caminho 11" d="M219.63,287.161a27.969,27.969,0,0,0-8.854-9.872,10,10,0,0,0-1.153-.738A27.6,27.6,0,0,0,195.23,272.5H163.641A27.64,27.64,0,0,0,136,300.141v39.487a11.847,11.847,0,0,0,11.846,11.846H151.8V296.192h7.9v55.281h39.487V296.192h7.9v55.281h3.949a11.847,11.847,0,0,0,11.846-11.846V300.141a27.58,27.58,0,0,0-3.241-12.98Zm0,0" transform="translate(-68.873 -138.245)" fill="#fff"/>
  <path id="Caminho_12" data-name="Caminho 12" d="M370.971,309.3a27.33,27.33,0,0,0-15.546-4.8H323.836c-.69,0-1.363.075-2.042.121a35.578,35.578,0,0,1,2.042,11.725v39.487a19.417,19.417,0,0,1-4.059,11.846h39.6V324.244h7.9v43.04a18.191,18.191,0,0,0,4.232-1.406,19.771,19.771,0,0,0,11.563-17.943V332.141a27.669,27.669,0,0,0-12.095-22.84Zm0,0" transform="translate(-161.941 -154.451)" fill="#fff"/>
  <path id="Caminho_13" data-name="Caminho 13" d="M175.385,104.5a47.289,47.289,0,0,0-43.021,67.127H154.9a23.692,23.692,0,1,1,40.971,0h22.554a47.289,47.289,0,0,0-43.04-67.127Zm0,0" transform="translate(-64.822 -53.167)" fill="#fff"/>
  <path id="Caminho_14" data-name="Caminho 14" d="M217.484,83.422H196.162l-.767-2.965a72.949,72.949,0,0,0-8.053-19.294l-1.581-2.641L200.9,43.355a3.912,3.912,0,0,0,0-5.547L184.131,21.034a4,4,0,0,0-5.53,0L163.435,36.2l-2.641-1.579a73.113,73.113,0,0,0-19.317-8.059l-2.965-.771V4.449A3.949,3.949,0,0,0,134.563.5H110.871a3.949,3.949,0,0,0-3.949,3.949V25.771l-2.965.767a73.12,73.12,0,0,0-19.3,8.05l-2.641,1.581L66.855,21.034a4,4,0,0,0-5.547,0L44.534,37.8a3.915,3.915,0,0,0,0,5.553L59.7,58.521l-1.579,2.641a72.955,72.955,0,0,0-8.055,19.294l-.775,2.965H27.949A3.949,3.949,0,0,0,24,87.371v23.692a3.949,3.949,0,0,0,3.949,3.949h5.343A23.629,23.629,0,0,1,67.6,102.5c-.064-1.093-.166-2.177-.166-3.285a55.281,55.281,0,0,1,110.563,0c0,1.109-.1,2.192-.166,3.285a23.629,23.629,0,0,1,34.31,12.509h5.343a3.949,3.949,0,0,0,3.949-3.949V87.371a3.949,3.949,0,0,0-3.949-3.949Zm0,0" transform="translate(-12.154 -0.5)" fill="#fff"/>
</svg>
