<svg id="fb" xmlns="http://www.w3.org/2000/svg" width="251.727" height="251.727" viewBox="0 0 251.727 251.727">
  <g id="post-facebook">
    <path id="Caminho_15" data-name="Caminho 15" d="M226.555,0H25.173A25.247,25.247,0,0,0,0,25.173V226.554a25.247,25.247,0,0,0,25.173,25.173H226.555a25.247,25.247,0,0,0,25.173-25.173V25.173A25.247,25.247,0,0,0,226.555,0ZM213.968,25.173V62.932H188.8c-7.552,0-12.586,5.035-12.586,12.586v25.173h37.759V138.45H176.209v88.1H138.45v-88.1H113.277V100.691H138.45V69.225c0-23.914,20.138-44.052,44.052-44.052Z" fill="#fff"/>
  </g>
</svg>
