<svg id="mensagem" xmlns="http://www.w3.org/2000/svg" width="252.53" height="198.415" viewBox="0 0 252.53 198.415">
  <g id="Grupo_2" data-name="Grupo 2" transform="translate(0 0)">
    <path id="Caminho_26" data-name="Caminho 26" d="M24.238,115.979q4.792,3.381,28.888,20.081t36.921,25.715q1.409.988,5.988,4.3t7.609,5.356q3.03,2.042,7.329,4.579a42.516,42.516,0,0,0,8.1,3.8,22.328,22.328,0,0,0,7.046,1.268h.284a22.347,22.347,0,0,0,7.047-1.268,42.558,42.558,0,0,0,8.1-3.8q4.3-2.539,7.327-4.579t7.61-5.356q4.578-3.315,5.99-4.3,12.962-9.017,65.95-45.8a66.944,66.944,0,0,0,17.19-17.333,37.215,37.215,0,0,0,6.907-21.276A22.738,22.738,0,0,0,229.982,54.82H22.546q-10.85,0-16.7,7.327T0,80.466Q0,89.344,7.751,99.7A69.947,69.947,0,0,0,24.238,115.979Z" transform="translate(0 -54.82)" fill="#fff"/>
    <path id="Caminho_27" data-name="Caminho 27" d="M238.436,196.7q-46.217,31.282-70.176,48.618-8.032,5.916-13.035,9.229a80.441,80.441,0,0,1-13.317,6.763,40.55,40.55,0,0,1-15.5,3.453h-.285a40.563,40.563,0,0,1-15.5-3.453,80.482,80.482,0,0,1-13.317-6.763q-5-3.309-13.034-9.229Q65.246,231.365,14.234,196.7A74.644,74.644,0,0,1,0,184.437V296.325A21.706,21.706,0,0,0,6.623,312.25a21.708,21.708,0,0,0,15.925,6.625H229.984a22.616,22.616,0,0,0,22.546-22.55V184.437A77.708,77.708,0,0,1,238.436,196.7Z" transform="translate(0 -120.46)" fill="#fff"/>
  </g>
</svg>
