<svg id="sobrenos" xmlns="http://www.w3.org/2000/svg" width="131.397" height="172.754" viewBox="0 0 131.397 172.754">
  <path id="Caminho_49" data-name="Caminho 49" d="M139.315,84.488c19.207,0,34.779-18.913,34.779-42.244S168.982,0,139.315,0s-34.78,18.913-34.78,42.244S120.107,84.488,139.315,84.488Z" transform="translate(-73.617 0)" fill="#fff"/>
  <path id="Caminho_50" data-name="Caminho 50" d="M41.9,301.1c-.006-1.422-.012-.4,0,0Z" transform="translate(-41.895 -152.114)" fill="#fff"/>
  <path id="Caminho_51" data-name="Caminho 51" d="M308.085,302.778c.019-.389.006-2.7,0,0Z" transform="translate(-176.698 -152.678)" fill="#fff"/>
  <path id="Caminho_52" data-name="Caminho 52" d="M173.214,237.294c-.644-40.643-5.952-52.223-46.571-59.554,0,0-5.718,7.286-19.044,7.286s-19.045-7.286-19.045-7.286c-40.175,7.251-45.806,18.66-46.546,58.234-.061,3.231-.089,3.4-.1,3.026,0,.7.005,2,.005,4.27,0,0,9.67,19.495,65.686,19.495s65.686-19.495,65.686-19.495c0-1.457,0-2.469,0-3.158A26.158,26.158,0,0,1,173.214,237.294Z" transform="translate(-41.902 -90.011)" fill="#fff"/>
</svg>
