<svg id="telefone" xmlns="http://www.w3.org/2000/svg" width="72.712" height="128.402" viewBox="0 0 72.712 128.402">
  <path id="Caminho_53" data-name="Caminho 53" d="M69.319,0H15.3A9.346,9.346,0,0,0,5.951,9.353v109.7A9.341,9.341,0,0,0,15.3,128.4H69.319a9.346,9.346,0,0,0,9.344-9.344V9.353A9.351,9.351,0,0,0,69.319,0ZM28.977,5.68h26.67c.674,0,1.221,1.006,1.221,2.251s-.547,2.255-1.221,2.255H28.977c-.678,0-1.217-1.011-1.217-2.255S28.3,5.68,28.977,5.68ZM42.312,119.17a5.966,5.966,0,1,1,5.956-5.97A5.974,5.974,0,0,1,42.312,119.17ZM71.663,98.728H12.956V15.782H71.663Z" transform="translate(-5.951)" fill="#fff"/>
</svg>
