<svg height="448pt" viewBox="0 0 448 448" width="448pt" xmlns="http://www.w3.org/2000/svg"><path d="m257.007812 187.886719-33.007812-59.414063-33.007812 59.414063c-1.140626 2.050781-3.125 3.496093-5.425782 3.953125l-65.34375 13.070312 45.433594 45.433594c1.882812 1.886719 2.699219 4.585938 2.183594 7.199219l-12.800782 64 65.386719-32.742188c2.25-1.125 4.898438-1.125 7.148438 0l65.371093 32.6875-12.800781-64c-.515625-2.613281.300781-5.3125 2.183594-7.199219l45.433594-45.433593-65.363281-13.015625c-2.285157-.46875-4.257813-1.910156-5.390626-3.953125zm0 0"/><path d="m224 0c-123.710938 0-224 100.289062-224 224s100.289062 224 224 224 224-100.289062 224-224c-.140625-123.652344-100.347656-223.859375-224-224zm125.65625 205.65625-52.96875 52.976562 15.152344 75.765626c.632812 3.007812-.511719 6.113281-2.945313 7.988281-2.433593 1.875-5.722656 2.191406-8.46875.8125l-76.425781-38.253907-76.425781 38.253907c-2.746094 1.378906-6.035157 1.0625-8.46875-.8125-2.433594-1.875-3.578125-4.980469-2.945313-7.988281l15.152344-75.796876-52.96875-52.976562c-2.066406-2.085938-2.824219-5.132812-1.976562-7.941406.84375-2.808594 3.160156-4.925782 6.03125-5.523438l76.378906-15.28125 38.199218-68.800781c1.53125-2.375 4.164063-3.808594 6.992188-3.808594 2.824219 0 5.460938 1.433594 6.992188 3.808594l38.199218 68.800781 76.441406 15.28125c2.890626.578125 5.226563 2.703125 6.082032 5.523438.855468 2.824218.085937 5.886718-1.996094 7.972656zm0 0"/></svg>