<svg height="448pt" viewBox="0 0 448 448" width="448pt" xmlns="http://www.w3.org/2000/svg"><path d="m224 0c-123.710938 0-224 100.289062-224 224s100.289062 224 224 224 224-100.289062 224-224c-.140625-123.652344-100.347656-223.859375-224-224zm120 304c0 13.253906-10.746094 24-24 24h-192c-13.253906 0-24-10.746094-24-24v-128c0-13.253906 10.746094-24 24-24h43.054688l13.785156-27.574219c1.355468-2.714843 4.128906-4.425781 7.160156-4.425781h64c3.046875-.015625 5.839844 1.699219 7.199219 4.425781l13.746093 27.574219h43.054688c13.253906 0 24 10.746094 24 24zm0 0"/><path d="m320 168h-48c-3.046875.015625-5.839844-1.699219-7.199219-4.425781l-13.746093-27.574219h-54.109376l-13.746093 27.574219c-1.359375 2.726562-4.152344 4.441406-7.199219 4.425781h-48c-4.417969 0-8 3.582031-8 8v128c0 4.417969 3.582031 8 8 8h192c4.417969 0 8-3.582031 8-8v-128c0-4.417969-3.582031-8-8-8zm-96 128c-30.929688 0-56-25.070312-56-56s25.070312-56 56-56 56 25.070312 56 56c-.035156 30.914062-25.085938 55.964844-56 56zm0 0"/><path d="m264 240c0 22.089844-17.910156 40-40 40s-40-17.910156-40-40 17.910156-40 40-40 40 17.910156 40 40zm0 0"/></svg>