<svg height="448pt" viewBox="0 0 448 448" width="448pt" xmlns="http://www.w3.org/2000/svg"><path d="m80 80h96v96h-96zm0 0"/><path d="m80 272h96v96h-96zm0 0"/><path d="m272 272h96v96h-96zm0 0"/><path d="m272 80h96v96h-96zm0 0"/><path d="m448 48c0-26.507812-21.492188-48-48-48h-352c-26.507812 0-48 21.492188-48 48v352c0 26.507812 21.492188 48 48 48h352c26.507812 0 48-21.492188 48-48zm-240 320c0 17.671875-14.328125 32-32 32h-96c-17.671875 0-32-14.328125-32-32v-96c0-17.671875 14.328125-32 32-32h96c17.671875 0 32 14.328125 32 32zm0-192c0 17.671875-14.328125 32-32 32h-96c-17.671875 0-32-14.328125-32-32v-96c0-17.671875 14.328125-32 32-32h96c17.671875 0 32 14.328125 32 32zm192 192c0 17.671875-14.328125 32-32 32h-96c-17.671875 0-32-14.328125-32-32v-96c0-17.671875 14.328125-32 32-32h96c17.671875 0 32 14.328125 32 32zm0-192c0 17.671875-14.328125 32-32 32h-96c-17.671875 0-32-14.328125-32-32v-96c0-17.671875 14.328125-32 32-32h96c17.671875 0 32 14.328125 32 32zm0 0"/></svg>