<svg height="448pt" viewBox="0 0 448 448" width="448pt" xmlns="http://www.w3.org/2000/svg"><path d="m320 152c0 17.671875-14.328125 32-32 32s-32-14.328125-32-32 14.328125-32 32-32 32 14.328125 32 32zm0 0"/><path d="m176 224c0 17.671875-14.328125 32-32 32s-32-14.328125-32-32 14.328125-32 32-32 32 14.328125 32 32zm0 0"/><path d="m224 0c-123.710938 0-224 100.289062-224 224s100.289062 224 224 224 224-100.289062 224-224c-.140625-123.652344-100.347656-223.859375-224-224zm-32 224c0 4.746094-.707031 9.46875-2.097656 14.007812l59.410156 29.703126c14.640625-19.8125 42.015625-25.113282 62.996094-12.203126 20.980468 12.914063 28.582031 39.742188 17.488281 61.742188-11.089844 21.996094-37.179687 31.839844-60.035156 22.648438-22.859375-9.191407-34.875-34.351563-27.648438-57.90625l-59.410156-29.703126c-12.246094 16.785157-33.898437 23.785157-53.65625 17.347657-19.753906-6.441407-33.121094-24.859375-33.121094-45.636719s13.367188-39.195312 33.121094-45.636719c19.757813-6.4375 41.410156.5625 53.65625 17.347657l59.410156-29.703126c-7.457031-24.027343 4.75-49.757812 28.074219-59.183593 23.328125-9.421875 49.980469.609375 61.308594 23.070312 11.324218 22.464844 3.539062 49.859375-17.90625 63.011719-21.445313 13.148438-49.394532 7.664062-64.277344-12.617188l-59.410156 29.703126c1.390625 4.539062 2.097656 9.261718 2.097656 14.007812zm0 0"/><path d="m320 296c0 17.671875-14.328125 32-32 32s-32-14.328125-32-32 14.328125-32 32-32 32 14.328125 32 32zm0 0"/></svg>