<svg height="464pt" viewBox="0 0 464 464" width="464pt" xmlns="http://www.w3.org/2000/svg"><path d="m84.007812 178.601562 3.992188 2.308594v25.335938l-18.191406 4.546875 42.191406 24.613281-.304688 14.792969-.648437 2.265625 24.953125-5.554688v-5.925781c0-10.753906 4.34375-20.601563 11.457031-27.878906l-27.449219-6.859375-.03125-25.316406 4-2.3125c12.351563-7.152344 20.023438-20.417969 20.023438-34.617188v-13.984375c0-22.511719-17.390625-41.351563-38.769531-41.992187-10.832031-.421876-21.253907 3.671874-29.085938 11.265624-7.832031 7.597657-12.144531 17.800782-12.144531 28.710938v16c0 14.199219 7.664062 27.464844 20.007812 34.601562zm0 0"/><path d="m143.625 89.265625c18.800781-30.265625 52.214844-49.265625 88.375-49.265625 35.902344 0 69.222656 18.824219 88.078125 48.792969.320313-.320313.601563-.671875.929687-.992188 4.984376-4.839843 10.710938-8.570312 16.886719-11.226562l9.074219-21.246094-25.527344-25.535156-22.496094 14.640625-4.304687-2.640625c-10.785156-6.609375-22.441406-11.449219-34.640625-14.367188l-4.929688-1.1875-5.558593-26.238281h-35.03125l-5.550781 26.238281-4.921876 1.175781c-12.199218 2.921876-23.855468 7.761719-34.640624 14.371094l-4.304688 2.640625-22.496094-14.640625-25.558594 25.558594 8.976563 21.398438c6.625 2.984374 12.609375 7.257812 17.640625 12.523437zm0 0"/><path d="m0 184v146.230469l34.335938 11.449219 29.03125-116.121094zm0 0"/><path d="m328 189.902344c-14.910156-10.414063-24-27.589844-24-45.902344v-16c0-8.816406 2.070312-17.273438 5.878906-24.910156-15.136718-28.714844-45.246094-47.089844-77.878906-47.089844-32.945312 0-63.183594 18.625-78.207031 47.734375 3.941406 7.929687 6.207031 16.867187 6.207031 26.28125v13.984375c0 18.3125-9.097656 35.503906-24.007812 45.910156v3.832032l32.007812 8.011718 32-8.011718v-3.839844c-14.910156-10.414063-24-27.589844-24-45.902344v-16c0-15.28125 6.039062-29.550781 17.007812-40.191406 10.960938-10.640625 25.398438-16.222656 40.710938-15.785156 29.929688.90625 54.28125 26.914062 54.28125 57.992187v13.984375c0 18.3125-9.097656 35.503906-24.007812 45.910156v3.832032l32.007812 8.011718 32-8.011718zm0 0"/><path d="m96 244.59375-18.246094-10.640625-28.203125 112.800781 15.746094 5.246094h.671875l30.03125-105.121094zm0 0"/><path d="m170.175781 217.695312c-10.695312 2.679688-18.175781 12.257813-18.175781 23.289063v2.367187l4.585938-1.015624c16.894531-3.742188 34.757812-2.953126 51.261718 2.335937l36.214844 11.574219c4.007812.152344 8 .59375 11.867188 1.699218l49.191406 14.054688h4.902344l1.976562-1.039062v-29.976563c0-11.03125-7.480469-20.609375-18.175781-23.289063l-45.816407-11.449218-.03125-25.316406 4-2.3125c12.351563-7.152344 20.023438-20.417969 20.023438-34.617188v-13.984375c0-22.511719-17.390625-41.351563-38.769531-41.992187-10.796875-.421876-21.253907 3.671874-29.085938 11.265624-7.832031 7.597657-12.144531 17.800782-12.144531 28.710938v16c0 14.199219 7.664062 27.464844 20.007812 34.601562l3.992188 2.308594v25.335938zm0 0"/><path d="m320 128v16c0 14.199219 7.664062 27.464844 20.007812 34.601562l3.992188 2.308594v25.335938l-27.457031 6.859375c7.105469 7.277343 11.457031 17.117187 11.457031 27.878906v21.550781l87.976562-46.304687-39.96875-9.984375-.03125-25.316406 4-2.3125c12.351563-7.152344 20.023438-20.417969 20.023438-34.617188v-13.984375c0-22.511719-17.390625-41.351563-38.769531-41.992187-10.855469-.421876-21.246094 3.671874-29.085938 11.265624-7.832031 7.597657-12.144531 17.800782-12.144531 28.710938zm0 0"/><path d="m249.550781 316.167969c-5.167969-4.648438-13.199219-5.441407-19.183593-1.847657l-29.792969 17.863282c-4.140625 2.496094-8.917969 3.816406-13.773438 3.816406-14.777343 0-26.800781-12.023438-26.800781-26.800781v-1.582031c0-10.210938 5.671875-19.394532 14.816406-23.96875l39.953125-19.976563-11.785156-3.769531c-13.824219-4.421875-28.761719-5.109375-42.921875-1.941406l-54.007812 12.007812-21.542969 75.398438 24.578125 14.746093c.703125-.945312 1.398437-1.898437 2.238281-2.738281l14.0625-14.0625c4.632813-4.648438 11.066406-7.3125 17.640625-7.3125 13.464844 0 24.410156 10.734375 24.878906 24.089844 13.050782.460937 23.539063 10.949218 24 24 13.050782.460937 23.539063 10.949218 24 24 9.464844.335937 17.546875 5.941406 21.480469 13.980468l17.855469 14.882813c2.347656 1.957031 5.339844 3.046875 8.410156 3.046875 4.601562 0 8.34375-3.742188 8.34375-8.34375 0-2.488281-1.097656-4.824219-3-6.410156l-42.128906-35.101563 10.25-12.296875 43.453125 36.207032c1.496093 1.257812 3.394531 1.945312 5.335937 1.945312h1.746094c4.601562 0 8.34375-3.742188 8.34375-8.34375 0-2.488281-1.097656-4.824219-3-6.410156l-42.128906-35.101563 10.25-12.296875 43.382812 36.152344c1.535156 1.289062 3.503906 2 5.503906 2h1.382813c4.753906 0 8.609375-3.855469 8.609375-8.601562 0-2.4375-1.039062-4.765626-2.847656-6.398438zm0 0"/><path d="m313.976562 288-12.167968-.304688-50.273438-14.359374c-8.230468-2.367188-17.296875-1.503907-24.933594 2.3125l-44.625 22.3125c-3.6875 1.847656-5.976562 5.542968-5.976562 9.65625v1.582031c0 5.953125 4.839844 10.800781 10.800781 10.800781 1.953125 0 3.863281-.527344 5.535157-1.527344l29.800781-17.871094c5.015625-3.015624 10.734375-4.601562 16.574219-4.601562 7.976562 0 15.632812 2.9375 21.554687 8.273438l67.582031 60.832031c.480469.429687.9375.871093 1.375 1.335937l134.777344-67.386718v-90.015626zm0 0"/><path d="m237.726562 443.191406c-1.230468 2.746094-2.894531 5.289063-5.039062 7.433594l-6.007812 6.007812 5.984374 5.277344c1.519532 1.347656 3.480469 2.089844 5.511719 2.089844h1.480469c4.601562 0 8.34375-3.742188 8.34375-8.34375 0-2.488281-1.097656-4.824219-3-6.410156zm0 0"/><path d="m215.03125 424c-2.359375 0-4.671875.953125-6.34375 2.625l-14.0625 14.0625c-1.671875 1.671875-2.625 3.984375-2.625 6.34375 0 4.945312 4.023438 8.96875 8.96875 8.96875 2.359375 0 4.671875-.953125 6.34375-2.625l14.0625-14.0625c1.671875-1.671875 2.625-3.984375 2.625-6.34375 0-4.945312-4.023438-8.96875-8.96875-8.96875zm0 0"/><path d="m176 384.96875c0-4.945312-4.023438-8.96875-8.96875-8.96875-2.359375 0-4.671875.953125-6.34375 2.625l-14.0625 14.0625c-1.671875 1.671875-2.625 3.984375-2.625 6.34375 0 4.945312 4.023438 8.96875 8.96875 8.96875 2.359375 0 4.671875-.953125 6.34375-2.625l14.0625-14.0625c1.671875-1.671875 2.625-3.984375 2.625-6.34375zm0 0"/><path d="m200 408.96875c0-4.945312-4.023438-8.96875-8.96875-8.96875-2.359375 0-4.671875.953125-6.34375 2.625l-14.0625 14.0625c-1.671875 1.671875-2.625 3.984375-2.625 6.34375 0 4.945312 4.023438 8.96875 8.96875 8.96875 2.359375 0 4.671875-.953125 6.34375-2.625l14.0625-14.0625c1.671875-1.671875 2.625-3.984375 2.625-6.34375zm0 0"/><path d="m152 360.96875c0-4.945312-4.023438-8.96875-8.96875-8.96875-2.359375 0-4.671875.953125-6.34375 2.625l-14.0625 14.0625c-1.671875 1.671875-2.625 3.984375-2.625 6.34375 0 4.945312 4.023438 8.96875 8.96875 8.96875 2.359375 0 4.671875-.953125 6.34375-2.625l14.0625-14.0625c1.671875-1.671875 2.625-3.984375 2.625-6.34375zm0 0"/></svg>