<svg height="464pt" viewBox="0 0 464 464" width="464pt" xmlns="http://www.w3.org/2000/svg"><path d="m400 0h-336v48h336zm-304 32h-16v-16h16zm32 0h-16v-16h16zm32 0h-16v-16h16zm0 0"/><path d="m256 264c0 13.253906-10.746094 24-24 24s-24-10.746094-24-24 10.746094-24 24-24 24 10.746094 24 24zm0 0"/><path d="m144 242.238281 19.648438-6.542969-9.265626-18.519531 30.785157-30.785156 18.519531 9.265625 6.542969-19.648438h43.53125l6.542969 19.648438 18.519531-9.265625 30.785156 30.785156-9.265625 18.519531 19.65625 6.542969v13.769531h80v-192h-336v192h80zm-64-162.238281h160v16h-160zm0 32h160v16h-160zm0 32h160v16h-160zm0 0"/><path d="m320 432h-176v16h-32v16h240v-16h-32zm0 0"/><path d="m440 128h-24v144h-96v13.769531l-19.648438 6.542969 9.265626 18.519531-30.785157 30.785157-18.519531-9.265626-6.542969 19.648438h-43.53125l-6.542969-19.648438-18.519531 9.265626-30.785156-30.785157 9.265625-18.519531-19.65625-6.542969v-13.769531h-96v-144h-24c-13.230469 0-24 10.769531-24 24v216h464v-216c0-13.230469-10.769531-24-24-24zm0 0"/><path d="m0 392c0 13.230469 10.769531 24 24 24h416c13.230469 0 24-10.769531 24-24v-8h-464zm0 0"/><path d="m284.289062 283.902344 1.34375-3.542969 18.367188-6.121094v-20.46875l-18.367188-6.121093-1.34375-3.542969c-.394531-1.035157-.800781-2.035157-1.234374-3.027344l-1.550782-3.460937 8.648438-17.296876-14.472656-14.472656-17.296876 8.648438-3.460937-1.550782c-.992187-.441406-1.992187-.839843-3.027344-1.234374l-3.542969-1.34375-6.121093-18.367188h-20.46875l-6.121094 18.367188-3.542969 1.34375c-1.035156.394531-2.035156.800781-3.027344 1.234374l-3.460937 1.550782-17.296875-8.648438-14.472656 14.472656 8.648437 17.296876-1.550781 3.460937c-.441406.992187-.839844 1.992187-1.234375 3.027344l-1.34375 3.542969-18.359375 6.121093v20.46875l18.367188 6.121094 1.34375 3.542969c.394531 1.035156.800781 2.035156 1.234374 3.027344l1.550782 3.460937-8.648438 17.296875 14.472656 14.472656 17.296876-8.648437 3.460937 1.550781c.992187.441406 1.992187.839844 3.027344 1.234375l3.542969 1.34375 6.121093 18.367187h20.46875l6.121094-18.367187 3.542969-1.34375c1.035156-.394531 2.035156-.800781 3.027344-1.234375l3.460937-1.550781 17.296875 8.648437 14.472656-14.472656-8.648437-17.296875 1.550781-3.460937c.433594-.992188.832031-1.992188 1.226562-3.027344zm-52.289062 20.097656c-22.054688 0-40-17.945312-40-40s17.945312-40 40-40 40 17.945312 40 40-17.945312 40-40 40zm0 0"/></svg>