<svg height="464pt" viewBox="0 0 464 464" width="464pt" xmlns="http://www.w3.org/2000/svg"><path d="m320 432h-176v16h-32v16h240v-16h-32zm0 0"/><path d="m256 264c0 13.253906-10.746094 24-24 24s-24-10.746094-24-24 10.746094-24 24-24 24 10.746094 24 24zm0 0"/><path d="m284.289062 283.902344 1.34375-3.542969 18.367188-6.121094v-20.46875l-18.367188-6.121093-1.34375-3.542969c-.394531-1.035157-.800781-2.035157-1.234374-3.027344l-1.550782-3.460937 8.648438-17.296876-14.472656-14.472656-17.296876 8.648438-3.460937-1.550782c-.992187-.441406-1.992187-.839843-3.027344-1.234374l-3.542969-1.34375-6.121093-18.367188h-20.46875l-6.121094 18.367188-3.542969 1.34375c-1.035156.394531-2.035156.800781-3.027344 1.234374l-3.460937 1.550782-17.296875-8.648438-14.472656 14.472656 8.648437 17.296876-1.550781 3.460937c-.441406.992187-.839844 1.992187-1.234375 3.027344l-1.34375 3.542969-18.359375 6.121093v20.46875l18.367188 6.121094 1.34375 3.542969c.394531 1.035156.800781 2.035156 1.234374 3.027344l1.550782 3.460937-8.648438 17.296875 14.472656 14.472656 17.296876-8.648437 3.460937 1.550781c.992187.441406 1.992187.839844 3.027344 1.234375l3.542969 1.34375 6.121093 18.367187h20.46875l6.121094-18.367187 3.542969-1.34375c1.035156-.394531 2.035156-.800781 3.027344-1.234375l3.460937-1.550781 17.296875 8.648437 14.472656-14.472656-8.648437-17.296875 1.550781-3.460937c.433594-.992188.832031-1.992188 1.226562-3.027344zm-52.289062 20.097656c-22.054688 0-40-17.945312-40-40s17.945312-40 40-40 40 17.945312 40 40-17.945312 40-40 40zm0 0"/><path d="m112 155.160156v-13.824218c0-16.175782 13.160156-29.335938 29.335938-29.335938 9.183593 0 17.953124 4.382812 23.464843 11.734375l8 10.671875c4.511719 6.007812 11.6875 9.59375 19.199219 9.59375 13.230469 0 24-10.769531 24-24v-10.664062c0-7.351563-5.984375-13.335938-13.335938-13.335938-9.183593 0-17.953124-4.382812-23.464843-11.734375-9.511719-12.691406-24.671875-20.265625-40.535157-20.265625h-21.832031c-13.121093 20.910156-20.832031 45.542969-20.832031 72 0 17.769531 3.496094 35.03125 9.96875 51.007812 3.960938-10.085937 6.03125-20.855468 6.03125-31.847656zm0 0"/><path d="m440 128h-56.40625c.132812 2.664062.40625 5.296875.40625 8 0 49.34375-23.871094 95.28125-64 123.832031v25.9375l-19.648438 6.542969 9.265626 18.519531-30.785157 30.785157-18.519531-9.265626-6.542969 19.648438h-43.53125l-6.542969-19.648438-18.519531 9.265626-30.785156-30.785157 9.265625-18.519531-19.65625-6.542969v-25.9375c-40.128906-28.550781-64-74.480469-64-123.832031 0-2.703125.265625-5.335938.40625-8h-56.40625c-13.230469 0-24 10.769531-24 24v216h464v-216c0-13.230469-10.769531-24-24-24zm-354.34375 181.65625-11.3125-11.3125 18.34375-18.34375h-76.6875v-16h76.6875l-18.34375-18.34375 11.3125-11.3125 37.65625 37.65625zm362.34375-29.65625h-76.6875l18.34375 18.34375-11.3125 11.3125-37.65625-37.65625 37.65625-37.65625 11.3125 11.3125-18.34375 18.34375h76.6875zm0 0"/><path d="m264 65.785156c0 12.183594 4.753906 23.65625 13.367188 32.269532l8.007812 8.007812c6.847656 6.859375 10.625 15.960938 10.625 25.65625v3.519531c0 9.242188 7.511719 16.761719 16.761719 16.761719 17.222656 0 31.238281 14.015625 31.238281 31.238281 0 6.175781 3.777344 11.570313 9.40625 13.9375 9.425781-18.695312 14.59375-39.558593 14.59375-61.175781 0-51.199219-28.464844-95.847656-70.375-119.046875l-16.488281 13.191406c-10.898438 8.703125-17.136719 21.695313-17.136719 35.640625zm0 0"/><path d="m192 74.671875c2.503906 3.335937 6.496094 5.328125 10.664062 5.328125 16.175782 0 29.335938 13.160156 29.335938 29.335938v10.664062c0 22.054688-17.945312 40-40 40-12.511719 0-24.488281-5.976562-32-15.992188l-8-10.679687c-2.503906-3.335937-6.496094-5.328125-10.664062-5.328125-7.351563 0-13.335938 5.984375-13.335938 13.335938v13.824218c0 17.640625-4.488281 34.792969-12.992188 50.097656 8.113282 13.6875 18.65625 25.964844 31.273438 36.222657l17.367188-5.785157-9.265626-18.519531 30.785157-30.785156 18.519531 9.265625 6.542969-19.648438h43.53125l6.542969 19.648438 18.519531-9.265625 30.785156 30.785156-9.265625 18.519531 17.367188 5.785157c10.777343-8.761719 20.03125-18.992188 27.5625-30.328125-10.472657-5.230469-17.273438-15.9375-17.273438-27.90625 0-8.40625-6.832031-15.238282-15.238281-15.238282-18.066407 0-32.761719-14.695312-32.761719-32.761718v-3.519532c0-5.421874-2.113281-10.511718-5.9375-14.34375l-8.007812-8.007812c-11.640626-11.648438-18.054688-27.128906-18.054688-43.589844 0-18.832031 8.433594-36.386718 23.144531-48.136718l10.269531-8.214844c-15.34375-6.007813-31.972656-9.433594-49.414062-9.433594-41.441406 0-78.542969 18.679688-103.503906 48h10.167968c20.871094 0 40.816407 9.96875 53.335938 26.671875zm0 0"/><path d="m0 392c0 13.230469 10.769531 24 24 24h416c13.230469 0 24-10.769531 24-24v-8h-464zm0 0"/></svg>