<svg height="464pt" viewBox="0 0 464 464" width="464pt" xmlns="http://www.w3.org/2000/svg"><path d="m0 32h96v80h-96zm0 0"/><path d="m96 8c0-4.414062-3.585938-8-8-8h-80c-4.414062 0-8 3.585938-8 8v8h96zm0 0"/><path d="m456 0h-112c-4.414062 0-8 3.585938-8 8v56h128v-56c0-4.40625-3.585938-8-8-8zm0 0"/><path d="m336 88c0 4.414062 3.585938 8 8 8h112c4.414062 0 8-3.585938 8-8v-8h-128zm0 0"/><path d="m0 456c0 4.414062 3.585938 8 8 8h128c4.414062 0 8-3.585938 8-8v-8h-144zm0 0"/><path d="m368 464h96v-48h-96zm64-32h16v16h-16zm-48 0h32v16h-32zm0 0"/><path d="m424 256h-56.734375c-.96875-5.753906-2.945313-11.144531-5.769531-16h46.503906v-112h24v-16h-64v16h24v96h-45.855469c-5.617187-3.671875-11.953125-6.335938-18.871093-7.390625.429687-2.808594.726562-5.671875.726562-8.609375 0-30.929688-25.070312-56-56-56-22.464844 0-41.777344 13.257812-50.703125 32.34375-8.527344-5.253906-18.542969-8.34375-29.296875-8.34375-25.359375 0-46.710938 16.878906-53.609375 40h-82.390625v-40h32c4.414062 0 8-3.585938 8-8v-40h-96v40c0 4.414062 3.585938 8 8 8h32v56h68.246094c-4.125 4.609375-7.285156 10.046875-9.398438 16h-42.847656v104h-32c-4.414062 0-8 3.585938-8 8v72h112v-72c0-4.414062-3.585938-8-8-8h-48v-88h24c0 26.511719 21.488281 48 48 48h176c23.777344 0 43.464844-17.304688 47.28125-40h40.71875v80h-40v48h96v-48h-40zm-392-112h32v16h-32zm368 240h-16v-16h16zm48 0h-32v-16h32zm0 0"/></svg>