<svg id="Outline-Expanded" enable-background="new 0 0 64 64" height="512" viewBox="0 0 64 64" width="512" xmlns="http://www.w3.org/2000/svg"><path d="m60 35c-.76 0-1.47.29-2 .77-.53-.48-1.24-.77-2-.77s-1.47.29-2 .77c-.53-.48-1.24-.77-2-.77-.35 0-.69.06-1 .18v-7.18c0-1.65-1.35-3-3-3s-3 1.35-3 3v13h-1c-1.65 0-3 1.35-3 3v3c0 .17.05.34.13.5l1.94 3.39c-.33-.13-.66-.23-1.01-.31l-10.06-2.37v-3.95c4.5-2.38 7.65-6.99 7.97-12.35 2.3-.46 4.03-2.48 4.03-4.91 0-.75-.17-1.47-.49-2.14.29-.18.49-.5.49-.86v-6c0-7.44-5.83-13.54-13.16-13.98-.41-1.17-1.53-2.02-2.84-2.02h-11c-7.72 0-14 6.28-14 14v1c0 2.97 1.63 5.57 4.05 6.95-.68.87-1.05 1.94-1.05 3.05 0 2.43 1.73 4.45 4.03 4.91.32 5.36 3.47 9.97 7.97 12.35v3.95l-10.06 2.37c-4.09.96-6.94 4.56-6.94 8.76v1.66c0 .55.45 1 1 1h60c.55 0 1-.45 1-1v-23c0-1.65-1.35-3-3-3zm-5 3c0-.55.45-1 1-1s1 .45 1 1v4c0 .55-.45 1-1 1s-1-.45-1-1zm-4 0c0-.55.45-1 1-1s1 .45 1 1v4c0 .55-.45 1-1 1s-1-.45-1-1zm-4-10c0-.55.45-1 1-1s1 .45 1 1v13h-2zm-7 1.82v-4.82h1.23c.5.56.77 1.27.77 2 0 1.3-.84 2.41-2 2.82zm-30 0c-1.16-.41-2-1.52-2-2.82 0-.79.31-1.55.88-2.12.04-.05.09-.09.14-.13.32.08.65.15.98.19zm-5-12.82v-1c0-6.62 5.38-12 12-12h11c.55 0 1 .45 1 1s.45 1 1 1c6.62 0 12 5.38 12 12v5h-3c-4.41 0-8-3.59-8-8 0-1.65-1.35-3-3-3-.55 0-1 .45-1 1 0 .12-.04 3-2 3h-7.1c-1.6 0-2.9 1.31-2.9 3 0 2.21-1.79 4-4 4-3.31 0-6-2.69-6-6zm7 14v-6.09c2.84-.47 5-2.95 5-5.99 0-.51.4-.92.9-.92h7.1c2.4 0 3.46-1.89 3.83-3.55.11.16.17.35.17.55 0 5.17 3.96 9.45 9 9.95v6.05c0 7.17-5.83 13-13 13s-13-5.83-13-13zm13 22.42 1.08 1.08-1.08 1.09-1.08-1.09zm0-2.54-5-2.5v-3.24c1.56.56 3.24.86 5 .86s3.44-.3 5-.86v3.24zm-22 9.12v-.66c0-3.27 2.22-6.07 5.4-6.82l2.19-.51 2.27 2.26-.81 2.41c-.16.49.07 1.03.54 1.23l4.7 2.09zm11.24-3.54.71-2.14c.12-.36.03-.76-.24-1.03l-1.83-1.83 5.39-1.26 2.26 9.05zm7.9.96-.23-.91.59-.59.1.1zm-.8-3.18-.84-3.38 2.81 1.41zm2.05 5.76.8-2.39.1.1c.2.19.45.29.71.29s.51-.1.71-.29l.1-.1.8 2.39zm4.47-2.58-.46-1.4.1-.1.59.59zm-1.17-5.15 2.81-1.41-.84 3.38zm5.04-2.07 5.39 1.26-1.83 1.83c-.27.27-.36.67-.24 1.03l.71 2.14-6.29 2.79zm13.27 9.8h-12.29l4.7-2.09c.47-.2.7-.74.54-1.23l-.81-2.41 2.27-2.26 2.19.51c1.32.32 2.49.99 3.4 1.94zm16 0h-14v-6c0-.17-.05-.34-.13-.5l-3.87-6.77v-2.73c0-.55.45-1 1-1h4.83c-.41 1.16-1.53 2-2.83 2h-1v2h1c1.85 0 3.46-1 4.33-2.5.48.31 1.06.5 1.67.5.76 0 1.47-.29 2-.77.53.48 1.24.77 2 .77s1.47-.29 2-.77c.53.48 1.24.77 2 .77.35 0 .69-.06 1-.18zm0-18c0 .55-.45 1-1 1s-1-.45-1-1v-4c0-.55.45-1 1-1s1 .45 1 1z"/><circle cx="19" cy="28" r="2"/><circle cx="31" cy="28" r="2"/><path d="m29.77 34.639-1.54-1.277c-.876 1.056-2.023 1.638-3.23 1.638s-2.354-.582-3.23-1.639l-1.54 1.277c1.263 1.523 2.957 2.362 4.77 2.362s3.507-.839 4.77-2.361z"/><path d="m52 8h5v1.219l-3.243.812c-.445.111-.757.51-.757.969v2h2v-1.219l3.243-.812c.444-.111.757-.51.757-.969v-3c0-.553-.448-1-1-1h-7c-.552 0-1 .447-1 1v2h2z"/><path d="m53 15h2v2h-2z"/><path d="m62 2h-15c-.552 0-1 .447-1 1v17c0 .553.448 1 1 1h5v3c0 .369.203.708.528.882.148.079.31.118.472.118.194 0 .387-.057.555-.168l5.748-3.832h2.697c.552 0 1-.447 1-1v-17c0-.553-.448-1-1-1zm-1 17h-2c-.197 0-.391.059-.555.168l-4.445 2.964v-2.132c0-.553-.448-1-1-1h-5v-15h13z"/></svg>