<?xml version="1.0" encoding="iso-8859-1"?>
<!-- Generator: Adobe Illustrator 19.0.0, SVG Export Plug-In . SVG Version: 6.00 Build 0)  -->
<svg version="1.1" id="Capa_1" xmlns="http://www.w3.org/2000/svg" xmlns:xlink="http://www.w3.org/1999/xlink" x="0px" y="0px"
	 viewBox="0 0 480 480" style="enable-background:new 0 0 480 480;" xml:space="preserve">
<g>
	<g>
		<path d="M240,104c-30.928,0-56,25.072-56,56c0,30.928,25.072,56,56,56c30.913-0.035,55.965-25.087,56-56
			C296,129.072,270.928,104,240,104z M240,200c-22.091,0-40-17.909-40-40s17.909-40,40-40c22.08,0.026,39.974,17.92,40,40
			C280,182.091,262.091,200,240,200z"/>
	</g>
</g>
<g>
	<g>
		<path d="M240,0C151.634,0,80,71.634,80,160c0,85.392,147.08,307.04,153.344,316.44c1.484,2.225,3.982,3.56,6.656,3.56
			c2.674,0,5.172-1.335,6.656-3.56C252.92,467.04,400,245.392,400,160C400,71.634,328.366,0,240,0z M240,457.384
			C210.84,412.408,96,230.72,96,160c0.093-79.491,64.509-143.907,144-144c79.491,0.093,143.907,64.509,144,144
			C384,230.704,269.16,412.408,240,457.384z"/>
	</g>
</g>
<g>
</g>
<g>
</g>
<g>
</g>
<g>
</g>
<g>
</g>
<g>
</g>
<g>
</g>
<g>
</g>
<g>
</g>
<g>
</g>
<g>
</g>
<g>
</g>
<g>
</g>
<g>
</g>
<g>
</g>
</svg>
