<svg id="Layer_1" height="512" viewBox="0 0 512 512" width="512" xmlns="http://www.w3.org/2000/svg" data-name="Layer 1"><path d="m406.383 159.443a16.142 16.142 0 0 0 -20.47-8.124l-32.968 12.948a16.058 16.058 0 0 0 -8.664 21.812l4.567 9.653-3.649 1.551c-13.136 2.744-22.234 2.375-35.752-1.412l-32.938-9.228a49.633 49.633 0 0 0 -28.4.458l-31.787 10.023a49.6 49.6 0 0 0 -17.506 9.773c-5.58-2.048-16.23-4.678-30.833-2.573l4.325-8.209a16.078 16.078 0 0 0 -5.888-21.208l-30.269-18.363a16.118 16.118 0 0 0 -22.631 6.285l-85.339 162.871a15.978 15.978 0 0 0 6.369 21.448l30.458 17.11a16.018 16.018 0 0 0 7.869 2.076 16.238 16.238 0 0 0 4.6-.669 15.97 15.97 0 0 0 9.683-7.93l4.7-8.926 15.092 12.547-21.73 30.062a25.3 25.3 0 0 0 5.765 35.387l2.639 1.895a25.294 25.294 0 0 0 14.807 4.765 25.625 25.625 0 0 0 6.2-.768c.055.7.133 1.4.247 2.105a25.167 25.167 0 0 0 10.235 16.511l2.639 1.9a25.294 25.294 0 0 0 14.807 4.765 25.675 25.675 0 0 0 6.2-.768c.056.7.133 1.4.247 2.105a25.162 25.162 0 0 0 10.235 16.51l2.639 1.9a25.308 25.308 0 0 0 14.807 4.765 25.675 25.675 0 0 0 6.2-.768c.056.7.133 1.4.247 2.1a25.162 25.162 0 0 0 10.235 16.51l2.639 1.9a25.474 25.474 0 0 0 35.449-5.746l8.53-11.8 13.454 10.716a29.06 29.06 0 0 0 47.956-21.384 29.085 29.085 0 0 0 33.221-7.751 28.733 28.733 0 0 0 7.068-18.318 29.087 29.087 0 0 0 33.22-7.752 28.724 28.724 0 0 0 7.032-17.451 29.168 29.168 0 0 0 35.581-6.763l.38-.438a28.269 28.269 0 0 0 -2.933-39.962l-9.5-8.178a64.4 64.4 0 0 0 17.309-15.428l.145.305a16.033 16.033 0 0 0 14.516 9.227 16.2 16.2 0 0 0 6.437-1.341l32.08-13.853a16.055 16.055 0 0 0 8.18-21.574zm-329.844 192.697a4.116 4.116 0 0 1 -5.654 1.655l-30.458-17.111a4.038 4.038 0 0 1 -1.617-5.416l85.342-162.868a4.05 4.05 0 0 1 2.531-2.041 4.17 4.17 0 0 1 1.118-.155 4.079 4.079 0 0 1 2.128.6l30.271 18.363a4.06 4.06 0 0 1 1.494 5.355zm24.087 66.813-2.639-1.895a13.3 13.3 0 0 1 -3.038-18.611l33.626-46.524a13.453 13.453 0 0 1 18.721-3.029l2.64 1.9a13.3 13.3 0 0 1 3.038 18.61l-8.714 12.056-.011.015-24.9 34.453a13.453 13.453 0 0 1 -18.723 3.025zm34.126 24.508-2.639-1.9a13.3 13.3 0 0 1 -3.038-18.611l24.913-34.47a13.453 13.453 0 0 1 18.711-3.012l2.639 1.9a13.3 13.3 0 0 1 3.037 18.611l-24.9 34.453a13.453 13.453 0 0 1 -18.723 3.029zm34.126 24.508-2.639-1.9a13.3 13.3 0 0 1 -3.038-18.61l17.763-24.579a13.456 13.456 0 0 1 18.723-3.028l2.64 1.9a13.3 13.3 0 0 1 3.037 18.61l-17.764 24.579a13.454 13.454 0 0 1 -18.722 3.028zm52.848 21.479a13.453 13.453 0 0 1 -18.726 3.029l-2.639-1.9a13.3 13.3 0 0 1 -3.038-18.611l10.626-14.7a13.453 13.453 0 0 1 18.721-3.028l2.64 1.9a13.3 13.3 0 0 1 3.038 18.611zm191.038-93.62a16.162 16.162 0 0 1 -3.936 11.846l-.38.439a17.19 17.19 0 0 1 -24.165 1.838c-3.844-3.312-8.037-6.924-12.268-10.567l-.109-.1-31.306-26.959-.452-.39-.52-.448-.374-.321a6 6 0 0 0 -7.83 9.093l.507.437c2.857 2.46 17.73 15.267 32.2 27.73a16.932 16.932 0 0 1 1.708 23.9 17.13 17.13 0 0 1 -24.081 1.751l-10.133-8.726-22.525-19.389a6 6 0 1 0 -7.83 9.093l22.522 19.392a16.939 16.939 0 0 1 1.757 23.951 17.13 17.13 0 0 1 -24.082 1.752l-22.52-19.392a6 6 0 1 0 -7.83 9.094l7.3 6.284 5.088 4.381a16.939 16.939 0 0 1 1.757 23.951 17.13 17.13 0 0 1 -24.081 1.752c-.057-.05-.117-.1-.176-.147l-15.127-12.043a25.348 25.348 0 0 0 -9.564-27.641l-2.64-1.9a25.3 25.3 0 0 0 -14.812-4.758 25.341 25.341 0 0 0 -9.535-27.729l-2.64-1.9a25.294 25.294 0 0 0 -14.813-4.757 25.341 25.341 0 0 0 -9.536-27.73l-2.639-1.9a25.294 25.294 0 0 0 -13.99-4.751 25.327 25.327 0 0 0 -8.773-29.931l-2.64-1.9a25.475 25.475 0 0 0 -35.448 5.746l-4.848 6.727-16.42-13.651 63.154-119.862c13.17-3.643 23.166-2.771 29.348-1.333a49.844 49.844 0 0 0 -4.545 8.361l-9.714 23.591c-2.47 6-4.746 12.157-6.769 18.31l-9.693 29.492a6 6 0 0 0 3.265 7.357l2.087.927a47.957 47.957 0 0 0 46.214-3.534 46.855 46.855 0 0 0 20.891-34.611c.05-.523.1-1.05.135-1.584.425-2.086 3.815-16.909 14.2-17.638l14 3.937a33.53 33.53 0 0 1 14.422 8.372l86.707 85.45c.1.094.2.186.3.274l45.559 39.2a16.185 16.185 0 0 1 5.623 11.164zm-17.01-36.784-26.2-22.543-86.554-85.308a45.556 45.556 0 0 0 -19.6-11.376l-14.9-4.189a5.994 5.994 0 0 0 -1.624-.225h-.025c-9.285.039-16.919 5.092-22.075 14.614a47.742 47.742 0 0 0 -4.7 13.272c-.033.2-.057.4-.071.6-.037.547-.082 1.086-.132 1.616a34.9 34.9 0 0 1 -15.583 25.766 36.343 36.343 0 0 1 -31.794 3.714l7.958-24.212c1.93-5.876 4.1-11.759 6.464-17.487l9.69-23.535a37.545 37.545 0 0 1 23.328-21.178l31.786-10.023a37.705 37.705 0 0 1 21.551-.348l32.938 9.228c15.641 4.383 26.647 4.769 42.054 1.475a6.006 6.006 0 0 0 1.093-.345l4.629-1.966 62.85 132.841a52.431 52.431 0 0 1 -21.083 19.609zm77.635-26.057a4.049 4.049 0 0 1 -2.2 2.3l-32.08 13.854a4.094 4.094 0 0 1 -5.348-2l-4.169-8.812a6.014 6.014 0 0 0 -1.285-2.716l-73.179-154.665a4.057 4.057 0 0 1 2.2-5.511l32.972-12.949a4.12 4.12 0 0 1 5.225 2.062l77.742 165.288a4 4 0 0 1 .122 3.149z"/><path d="m256 163.09a79.045 79.045 0 1 0 -79.139-79.045 79.182 79.182 0 0 0 79.139 79.045zm0-146.09a67.045 67.045 0 1 1 -67.139 67.045 67.168 67.168 0 0 1 67.139-67.045z"/><path d="m241.666 119.024a28.379 28.379 0 0 0 9.453 4.21v3.149a6 6 0 1 0 12 0v-3.4a24.58 24.58 0 0 0 11.551-6.249c4.3-4.289 6.418-10.188 6.135-17.058-.473-11.518-10.346-18.494-13.414-20.389-.105-.067-.4-.254-.426-.267l-.7-.414c-.589-.35-.867-.515-1.767-.981a14.047 14.047 0 0 0 -1.335-.6l-1.229-.478a13.228 13.228 0 0 0 -1.36-.5 25.512 25.512 0 0 0 -2.518-.676c-.521-.1-1.365-.27-2.064-.41l-.917-.184c-5.78-1.145-8.42-5.356-8.473-9.021-.038-2.676.785-6.645 3.229-9.024 1.845-1.8 4.473-2.6 8.042-2.452a12.734 12.734 0 0 1 12.264 9.255 6 6 0 0 0 11.67-2.794 24.794 24.794 0 0 0 -18.684-17.85v-3.931a6 6 0 1 0 -12 0v3.975a20.392 20.392 0 0 0 -9.662 5.2c-6.507 6.334-6.894 15.221-6.857 17.794.144 10.055 7.6 18.535 18.138 20.621l.9.18c.721.144 1.59.318 2.123.422.257.053.991.277 1.312.375a1.632 1.632 0 0 1 .16.06c.079.035.16.068.242.1l1.336.52c.063.025.124.053.177.08.585.3.767.411 1.154.64l.784.469c.065.042.127.082.182.115.764.471 7.467 4.77 7.709 10.661.145 3.524-.712 6.165-2.622 8.071-3.065 3.06-8.109 3.7-10.6 3.588-3.537-.152-10.751-3.452-11.356-8.961a6 6 0 1 0 -11.928 1.31c.639 5.841 3.961 11.114 9.351 14.844z"/></svg>